HIERARCHY
ROOT Hips
{
  OFFSET 0 0 0
  CHANNELS 6 Xposition Yposition Zposition Zrotation Yrotation Xrotation
  JOINT LeftThigh
  {
    OFFSET 8.409438 0 -5.917753
    CHANNELS 3 Zrotation Yrotation Xrotation
    JOINT LeftLeg
    {
      OFFSET 0 0 -42.358652
      CHANNELS 3 Zrotation Yrotation Xrotation
      JOINT LeftFoot
      {
        OFFSET 0 0 -39.357303
        CHANNELS 3 Zrotation Yrotation Xrotation
      }
    }
  }
  JOINT RightThigh
  {
    OFFSET -8.409438 0 -5.917753
    CHANNELS 3 Zrotation Yrotation Xrotation
    JOINT RightLeg
    {
      OFFSET 0 0 -42.358652
      CHANNELS 3 Zrotation Yrotation Xrotation
      JOINT RightFoot
      {
        OFFSET 0 0 -39.357303
        CHANNELS 3 Zrotation Yrotation Xrotation
      }
    }
  }
  JOINT SpineLow
  {
    OFFSET 0 0 4.719101
    CHANNELS 3 Zrotation Yrotation Xrotation
    JOINT SpineMid
    {
      OFFSET 0 0 12.899191
      CHANNELS 3 Zrotation Yrotation Xrotation
      JOINT Chest
      {
        OFFSET 0 0 12.899191
        CHANNELS 3 Zrotation Yrotation Xrotation
        JOINT LeftShoulder
        {
          OFFSET 7.550562 1.41573 9.438202
          CHANNELS 3 Zrotation Yrotation Xrotation
          JOINT LeftArm
          {
            OFFSET 9.155056 0 4.247191
            CHANNELS 3 Zrotation Yrotation Xrotation
            JOINT LeftForearm
            {
              OFFSET 0 0 25.771955
              CHANNELS 3 Zrotation Yrotation Xrotation
              JOINT LeftHand
              {
                OFFSET 0 0 25.197169
                CHANNELS 3 Zrotation Yrotation Xrotation
              }
            }
          }
        }
        JOINT RightShoulder
        {
          OFFSET -7.550562 1.41573 9.438202
          CHANNELS 3 Zrotation Yrotation Xrotation
          JOINT RightArm
          {
            OFFSET -9.155056 0 4.247191
            CHANNELS 3 Zrotation Yrotation Xrotation
            JOINT RightForearm
            {
              OFFSET 0 0 -25.771955
              CHANNELS 3 Zrotation Yrotation Xrotation
              JOINT RightHand
              {
                OFFSET 0 0 -25.197169
                CHANNELS 3 Zrotation Yrotation Xrotation
              }
            }
          }
        }
        JOINT Neck
        {
          OFFSET 0 0 15.101124
          CHANNELS 3 Zrotation Yrotation Xrotation
          JOINT Head
          {
            OFFSET 0 0 11.325843
            CHANNELS 3 Zrotation Yrotation Xrotation
            End Site
            {
              OFFSET 0 0 14.157303
            }
          }
        }
      }
    }
  }
}
MOTION
Frames: 16
Frame Time: 0.0
0.0  93.25843  0.0  16.090948  -11.014964  -121.146125  45.259932  -11.584163  -90.542236  3.533408  22.049202  70.050556  5.271352  -8.249907  0.572872  -11.964882  9.093705  3.677279  12.400515  11.12714  29.486983  14.676733  5.570293  3.964834  1.203452  0.397944  3.438341  3.338575  0.914073  9.416053  3.338574  0.914073  9.416053  -17.259454  29.853681  6.95641  -162.723471  61.724494  -123.262007  -28.64814  13.570527  87.830292  59.232448  -34.091444  -6.784606  2.987796  -8.973889  20.40284  105.275185  48.908099  47.148949  4.648824  -25.493036  -127.079003  53.342036  8.361702  -1.903274  2.021131  6.724103  17.351656  1.323587  5.10532  12.976609  
0.0  93.25843  0.0  15.343925  -10.162383  -120.547412  45.311697  -13.797617  -90.808716  6.968887  24.773989  76.181599  6.303881  -7.827949  0.692217  -12.528334  8.720552  3.551688  12.090653  11.051188  29.219651  14.531616  5.423736  3.97827  1.178405  0.333408  3.373807  3.260431  0.74491  9.236059  3.260431  0.74491  9.236059  -17.449095  29.83999  7.196889  -163.319912  61.727649  -123.612666  -28.665844  13.9306  87.304351  59.099891  -34.032124  -6.875599  2.779165  -8.981253  20.311126  104.088983  49.009997  46.075167  5.058245  -26.076986  -127.057359  52.924151  8.525702  -1.911873  1.687802  6.682686  17.477471  1.073478  5.065166  13.07479  
0.0  93.25843  0.0  14.560683  -9.182256  -119.833676  45.29161  -15.848475  -90.852222  10.712594  27.258981  82.323821  7.173055  -7.323105  0.759409  -13.025896  8.330206  3.36584  11.680043  11.02244  28.953837  14.499203  5.27043  4.002581  1.164086  0.258855  3.323157  3.210601  0.546115  9.093755  3.210601  0.546115  9.093755  -17.82396  29.792955  7.229646  -164.174003  61.727287  -124.202567  -28.884699  14.092586  86.474159  58.357323  -34.132514  -6.431413  2.539162  -8.913192  20.119787  102.930386  49.127358  44.98937  5.434495  -26.785258  -127.119412  52.608792  8.688184  -2.084139  1.222095  6.616885  17.447639  0.726506  5.002355  13.057917  
0.0  93.25843  0.0  13.809737  -8.162783  -119.079188  45.029917  -17.408475  -90.271773  14.039536  29.187975  88.112066  7.739003  -6.683547  0.759342  -13.61632  7.957848  2.98393  11.093516  10.978393  28.67075  14.318819  5.084988  4.032034  1.147836  0.19283  3.246142  3.156883  0.372009  8.879947  3.156883  0.372009  8.879948  -18.018833  29.769735  7.397833  -165.448835  61.776552  -125.108881  -28.932628  14.394137  86.017894  58.101357  -34.095302  -6.256473  2.420104  -8.85533  20.161226  101.879043  49.24494  43.914131  5.625983  -27.502272  -127.184177  52.470067  8.78622  -2.325417  0.785055  6.500147  17.412913  0.402544  4.902168  13.03727  
0.0  93.25843  0.0  13.065924  -6.904029  -118.056957  44.17307  -18.16362  -89.007566  16.52578  30.489958  93.276366  8.033557  -5.917402  0.703219  -14.510639  7.636058  2.240163  10.48851  10.934884  28.413684  14.315528  5.019349  4.142137  1.109942  0.147513  3.152279  3.047212  0.257853  8.621163  3.047213  0.257853  8.621164  -18.291264  29.720103  7.435079  -166.891364  61.889375  -126.230609  -28.909703  14.348683  85.695597  57.833118  -34.05091  -5.945851  2.280702  -8.79271  20.129059  100.913857  49.47934  42.914812  5.654449  -28.097857  -127.262383  52.410969  8.797849  -2.604389  0.30936  6.332719  17.202194  0.052853  4.7627  12.885244  
0.0  93.25843  0.0  12.386915  -5.954726  -117.206457  43.160309  -18.830626  -86.879907  18.270339  31.354596  97.672343  8.127477  -5.031048  0.629352  -15.272899  7.293698  1.562079  9.85332  10.894642  28.170719  14.172581  4.837233  4.173307  1.111612  0.096157  3.103107  3.045059  0.119834  8.484401  3.045059  0.119834  8.484401  -18.475248  29.647636  7.433149  -168.387921  62.047359  -127.280944  -28.755643  13.896982  85.578631  57.678998  -33.935252  -5.742223  2.314973  -8.744586  20.126666  100.134483  49.808507  42.058749  5.326278  -28.497112  -127.19903  52.534529  8.785215  -2.726344  -0.090062  6.164205  16.845341  -0.238263  4.624828  12.622681  
0.0  93.25843  0.0  11.718793  -4.974535  -116.251177  41.801875  -19.116009  -84.095648  19.29074  32.114241  101.30131  8.221061  -4.073414  0.560367  -16.141033  6.990972  0.742085  9.479534  10.862448  28.055251  13.813578  4.554443  4.039081  1.104459  0.056731  3.041762  3.020568  0.016019  8.314949  3.020568  0.016019  8.314949  -18.684384  29.551399  7.441521  -169.691749  62.230071  -128.30145  -28.588142  13.19044  85.542489  57.381381  -33.822611  -5.436208  2.398166  -8.734989  20.132212  99.400795  50.279405  41.30423  4.645089  -28.680113  -126.939124  52.686439  8.71983  -2.697709  -0.66424  6.014307  16.29256  -0.659204  4.496823  12.214723  
0.0  93.25843  0.0  11.005872  -4.131272  -115.329221  40.344008  -19.064725  -80.77721  19.570599  32.710379  104.329777  8.352692  -3.128622  0.438928  -17.096135  6.598516  -0.104034  8.90784  10.767485  27.796108  13.804181  4.353632  4.10262  1.114997  -0.001828  2.986315  3.042171  -0.142495  8.160725  3.042171  -0.142495  8.160725  -18.827879  29.48207  7.57058  -170.896281  62.403148  -129.153381  -28.370862  12.583231  85.633685  57.21276  -33.677034  -5.258708  2.442638  -8.704855  20.11303  98.808091  50.757464  40.670229  3.707003  -28.633456  -126.547025  52.950308  8.641925  -2.33972  -0.982824  5.855809  15.830037  -0.88939  4.369902  11.871627  
0.0  93.25843  0.0  10.281714  -3.135231  -114.210387  38.458271  -18.641611  -77.073448  19.30473  32.940213  106.715135  8.535187  -2.154479  0.278505  -18.081812  6.146483  -0.993299  8.476224  10.587869  27.547472  13.702338  4.171652  4.129427  1.105472  -0.050223  2.901912  3.010693  -0.269509  7.927923  3.010693  -0.269509  7.927923  -19.237894  29.358041  7.603791  -171.861313  62.459444  -129.940689  -28.211246  12.121746  85.639367  56.965867  -33.546163  -5.026716  2.472552  -8.780306  20.011715  98.538712  51.045315  40.270159  2.133619  -28.369307  -125.785799  53.074699  8.48893  -1.943068  -1.357218  5.69145  15.335005  -1.161222  4.23774  11.504494  
0.0  93.25843  0.0  9.515935  -2.274494  -113.167578  36.511377  -18.430243  -73.09949  18.71357  32.657718  108.607281  8.522836  -1.136076  0.086323  -19.180717  5.661464  -1.937194  8.066313  10.40653  27.277947  13.698232  3.95778  4.191165  1.102857  -0.121644  2.826265  2.995661  -0.460639  7.718029  2.995661  -0.460639  7.71803  -19.345584  29.274145  7.79985  -172.835006  62.450433  -130.585135  -28.076883  11.958049  85.602081  56.726958  -33.427505  -4.787786  2.478444  -8.8211  19.786585  98.075106  51.484816  39.921833  1.106141  -28.185401  -125.240567  53.13396  8.376094  -1.662437  -1.677064  5.540055  14.890953  -1.393203  4.117137  11.174814  
0.0  93.25843  0.0  8.658187  -1.585965  -112.168095  34.550832  -18.382964  -69.093656  17.762355  31.769922  110.14411  8.309453  -0.090683  -0.13885  -20.623234  4.926878  -3.076157  7.911663  10.256249  27.148384  13.909711  3.793052  4.328047  1.126597  -0.220715  2.764506  3.049722  -0.730891  7.544612  3.049722  -0.730891  7.544612  -19.511978  29.132867  7.874833  -174.103056  62.294426  -131.280496  -28.033301  11.79564  85.309882  56.48031  -33.309232  -4.554399  2.526592  -8.905389  19.489873  97.678671  51.916522  39.688958  0.255505  -28.187816  -124.713872  53.056863  8.297103  -1.609671  -2.10068  5.393321  14.435122  -1.703233  3.998103  10.837044  
0.0  93.25843  0.0  7.837428  -0.593833  -110.985659  32.183044  -17.953352  -65.042492  16.310065  30.220451  111.162929  7.957067  0.916299  -0.309911  -21.684966  4.294722  -4.058554  7.345301  10.139111  26.879817  13.874738  3.613828  4.388075  1.094333  -0.306314  2.665017  2.953536  -0.956391  7.269442  2.953535  -0.95639  7.269442  -19.59383  29.020435  7.85694  -175.453008  62.033097  -132.353993  -27.839939  11.850927  85.148798  56.218035  -33.190272  -4.341925  2.515823  -8.927068  19.185508  97.264818  52.4459  39.457524  1.46E-4  -28.498183  -124.431182  52.994784  8.270394  -1.629628  -2.508082  5.238722  14.064564  -2.001899  3.873865  10.562798  
0.0  93.25843  0.0  7.033816  0.382868  -109.947694  29.719427  -17.457254  -60.711388  14.523754  28.266517  111.589579  7.56291  1.822226  -0.377921  -22.666532  3.636325  -4.91494  6.315637  10.162632  26.462467  14.028857  3.4773  4.501911  1.04044  -0.384809  2.576823  2.799519  -1.161004  7.026092  2.799519  -1.161004  7.026092  -19.642985  28.812062  7.755395  -176.948173  61.605334  -133.633103  -27.612559  11.849589  84.915762  56.079662  -33.084077  -4.137263  2.805865  -9.06023  19.061098  96.839635  53.071288  39.264397  -0.283689  -28.94269  -124.035957  52.973171  8.251038  -1.635249  -2.883949  5.062065  13.748599  -2.277089  3.734044  10.328919  
0.0  93.25843  0.0  6.264722  1.457289  -109.062563  27.175728  -17.02923  -56.101697  12.701626  26.296409  111.492802  7.263376  2.628557  -0.355095  -23.537797  3.008186  -5.596678  5.577494  10.257847  26.289903  14.002237  3.318613  4.531185  0.970315  -0.456131  2.503243  2.60214  -1.345383  6.823659  2.60214  -1.345383  6.823659  -19.489746  28.663695  7.826041  -178.315948  61.118365  -134.747245  -27.177227  11.729648  84.778444  55.984137  -32.973373  -3.909453  2.896693  -9.12509  18.867554  96.512155  53.604412  38.999245  -0.530008  -29.41736  -123.617855  53.072094  8.24033  -1.566674  -3.270135  4.857539  13.47442  -2.559955  3.573271  10.126117  
0.0  93.25843  0.0  5.617033  2.283055  -108.352722  25.005949  -16.776475  -51.168059  10.911882  24.553657  110.785582  7.241588  3.379851  -0.174438  -24.70226  2.336867  -6.506085  4.903669  10.434061  26.186095  14.345985  3.299849  4.697093  0.937703  -0.517205  2.449368  2.508142  -1.506723  6.674949  2.508142  -1.506723  6.674949  -19.357053  28.481744  7.957243  -179.375519  60.498646  -135.583834  -26.573839  11.457316  84.670861  55.936527  -32.833683  -3.732009  3.031285  -9.239074  18.750418  96.251641  54.07237  38.696085  -1.386127  -29.718467  -122.755262  53.112424  8.239748  -1.469512  -3.609235  4.64607  13.238792  -2.807864  3.408439  9.951523  
0.0  93.25843  0.0  5.021349  3.06568  -107.708992  23.060893  -16.86959  -46.120429  9.317659  23.164105  109.532594  7.289267  3.970248  0.029081  -25.175711  1.700296  -6.999505  4.29748  10.616936  26.138623  14.283477  3.225168  4.72449  0.899003  -0.576999  2.396348  2.397884  -1.664167  6.528949  2.397884  -1.664167  6.528949  -19.184815  28.335388  8.131274  179.82916  59.785308  -136.223532  -25.894134  11.127845  84.559437  55.88008  -32.698016  -3.545422  3.124196  -9.247855  18.636067  95.916185  54.53155  38.257672  -2.320755  -29.908516  -121.860462  53.250368  8.317711  -1.114647  -3.909416  4.485976  12.999366  -3.027796  3.283279  9.773735  
